
      <svg data-logo="logo" xmlns="http://www.w3.org/2000/svg" viewBox="0 0 275 44">
        <g id="logogram" transform="translate(0, 2) rotate(0) "><path fill-rule="evenodd" clip-rule="evenodd" d="M24.6625 0C29.5499 0.000157557 33.512 3.87456 33.5121 8.65224C33.5121 8.91866 33.4997 9.18398 33.4824 9.44828H40.9366C48.1871 9.44828 51.0342 18.6407 45.0014 22.5723L37.1131 27.7122C35.415 28.8193 35.8805 31.3743 37.8654 31.84C38.5143 31.9921 39.1997 31.8658 39.7475 31.4934L44.3242 28.1927C44.4979 28.0675 44.7074 28 44.9225 28H57.4922C57.9872 28 58.1886 28.6281 57.7838 28.909L44.4783 38.1397C41.99 39.8319 38.8796 40.4048 35.9321 39.7133C26.9186 37.5986 24.8061 26.0015 32.5185 20.9749L37.7818 17.5457H29.7048H24.5358C23.0515 17.5457 21.6504 17.1926 20.4171 16.5691C21.7314 17.4535 24.9805 18.4377 27.7216 18.6251C27.9658 18.6251 28.3625 18.8385 27.8901 19.3183L11.2952 35.7067C11.105 35.8945 10.847 36 10.578 36H0.507884C0.056246 36 -0.169872 35.4613 0.149574 35.1463L19.5219 16.0472C17.1349 14.4709 15.5652 11.8013 15.5649 8.77349C15.5649 3.92875 19.5825 0 24.5385 0H24.6625ZM24.8419 6.74915C23.6982 6.74915 22.771 7.35337 22.771 8.09871C22.7715 8.71319 23.4024 9.23009 24.2648 9.39292C24.3487 9.42847 24.4413 9.44828 24.5385 9.44828H25.1533C25.1544 9.44225 25.1535 9.43586 25.1546 9.42983C26.1495 9.33152 26.9122 8.77441 26.9127 8.09871C26.9127 7.35337 25.9855 6.74915 24.8419 6.74915Z" fill="#002A3D"/></g>
        <g id="logotype" transform="translate(64, 1)"><path fill="#000000" d="M23.33 18.63L23.33 18.63Q23.33 17.58 23.05 16.76Q22.77 15.94 21.80 15.45Q20.84 14.96 18.84 14.96L18.84 14.96L12.86 14.96L12.86 22.24L18.84 22.24Q20.84 22.24 21.80 21.77Q22.77 21.29 23.05 20.47Q23.33 19.65 23.33 18.63ZM12.86 34L8.10 34L8.10 10.90L19.44 10.90Q22.80 10.90 24.67 11.90Q26.55 12.89 27.30 14.63Q28.05 16.36 28.05 18.63L28.05 18.63Q28.05 20.52 27.53 22.05Q27.00 23.57 25.74 24.59Q24.48 25.60 22.24 25.98L22.24 25.98L27.77 34L22.63 34L17.27 26.23L12.86 26.23L12.86 34ZM48.49 25.25L48.49 26.72L34.98 26.72Q35.09 28.54 36.43 29.50Q37.78 30.46 39.88 30.46L39.88 30.46Q41.11 30.46 41.89 30.20Q42.68 29.94 43.21 29.52Q43.73 29.10 44.12 28.68L44.12 28.68L48.00 30.78Q47.06 31.97 46.01 32.77Q44.96 33.58 43.50 34.02Q42.05 34.45 39.88 34.45L39.88 34.45Q36.66 34.45 34.49 33.27Q32.32 32.08 31.24 29.99Q30.15 27.91 30.15 25.25L30.15 25.25Q30.15 22.63 31.13 20.54Q32.11 18.46 34.16 17.25Q36.21 16.04 39.43 16.04L39.43 16.04Q42.65 16.04 44.66 17.25Q46.67 18.46 47.58 20.54Q48.49 22.63 48.49 25.25L48.49 25.25ZM35.05 23.43L35.05 23.43L43.59 23.43Q43.56 21.96 42.51 21.00Q41.46 20.03 39.43 20.03L39.43 20.03Q37.40 20.03 36.35 20.93Q35.30 21.82 35.05 23.43ZM62.53 9.15L62.53 9.15L61.86 13.00Q61.65 12.89 61.30 12.79Q60.95 12.68 60.46 12.65L60.46 12.65Q59.38 12.51 58.59 12.72Q57.80 12.93 57.38 13.66Q56.96 14.40 56.96 15.80L56.96 15.80L56.96 16.50L61.16 16.50L61.16 20.38L56.96 20.38L56.96 34L52.31 34L52.31 20.38L49.89 20.38L49.89 16.50L52.31 16.50L52.31 15.27Q52.31 12.75 53.15 11.25Q53.99 9.74 55.60 9.08Q57.21 8.41 59.48 8.55L59.48 8.55Q59.97 8.55 60.55 8.64Q61.13 8.73 61.67 8.87Q62.21 9.01 62.53 9.15ZM77.37 16.57L75.76 20.70Q75.44 20.56 75.06 20.44Q74.67 20.31 74.08 20.31L74.08 20.31Q72.61 20.31 71.45 21.07Q70.30 21.82 69.63 23.15Q68.97 24.48 68.97 26.16L68.97 26.16L68.97 34.14L64.31 34.14L64.31 16.64L68.97 16.64L68.97 19.20Q69.63 18.49 70.42 17.79Q71.21 17.09 72.26 16.64Q73.31 16.18 74.81 16.18L74.81 16.18Q75.55 16.18 76.21 16.29Q76.88 16.39 77.37 16.57L77.37 16.57ZM78.31 16.50L83.00 16.50L83.00 34L78.31 34L78.31 16.50ZM80.69 14.08L80.69 14.08Q79.64 14.08 78.91 13.35Q78.17 12.61 78.17 11.56L78.17 11.56Q78.17 10.55 78.91 9.81Q79.64 9.08 80.69 9.08L80.69 9.08Q81.71 9.08 82.44 9.81Q83.18 10.55 83.18 11.56L83.18 11.56Q83.18 12.61 82.44 13.35Q81.71 14.08 80.69 14.08ZM94.23 16.04L94.23 16.04Q96.20 16.04 97.54 16.80Q98.89 17.55 99.87 18.74L99.87 18.74L99.87 16.50L104.56 16.50L104.56 33.20Q104.56 35.85 103.62 37.87Q102.67 39.88 100.66 41.02Q98.65 42.16 95.36 42.16L95.36 42.16Q92.70 42.16 91.02 41.51Q89.34 40.86 88.34 39.69Q87.34 38.52 86.81 36.91L86.81 36.91L91.30 35.92Q91.61 36.70 92.05 37.20Q92.48 37.71 93.26 37.97Q94.03 38.23 95.36 38.23L95.36 38.23Q97 38.23 98.00 37.67Q99.00 37.12 99.43 35.99Q99.87 34.88 99.87 33.20L99.87 33.20L99.87 31.76Q98.89 32.91 97.54 33.69Q96.20 34.45 94.23 34.45L94.23 34.45Q91.37 34.45 89.53 33.25Q87.69 32.04 86.80 29.96Q85.91 27.88 85.91 25.25L85.91 25.25Q85.91 22.59 86.80 20.51Q87.69 18.42 89.53 17.23Q91.37 16.04 94.23 16.04ZM90.59 25.25L90.59 25.25Q90.59 26.82 91.03 27.96Q91.47 29.10 92.45 29.71Q93.43 30.32 95.01 30.32L95.01 30.32Q96.44 30.32 97.53 29.73Q98.61 29.13 99.22 28.02Q99.84 26.89 99.84 25.25L99.84 25.25Q99.84 23.57 99.22 22.45Q98.61 21.33 97.53 20.75Q96.44 20.17 95.01 20.17L95.01 20.17Q93.43 20.17 92.45 20.77Q91.47 21.36 91.03 22.50Q90.59 23.64 90.59 25.25ZM125.95 25.25L125.95 26.72L112.44 26.72Q112.54 28.54 113.89 29.50Q115.24 30.46 117.34 30.46L117.34 30.46Q118.56 30.46 119.35 30.20Q120.14 29.94 120.66 29.52Q121.19 29.10 121.57 28.68L121.57 28.68L125.46 30.78Q124.51 31.97 123.46 32.77Q122.41 33.58 120.96 34.02Q119.51 34.45 117.34 34.45L117.34 34.45Q114.12 34.45 111.95 33.27Q109.78 32.08 108.69 29.99Q107.61 27.91 107.61 25.25L107.61 25.25Q107.61 22.63 108.59 20.54Q109.57 18.46 111.61 17.25Q113.66 16.04 116.88 16.04L116.88 16.04Q120.10 16.04 122.11 17.25Q124.13 18.46 125.04 20.54Q125.95 22.63 125.95 25.25L125.95 25.25ZM112.51 23.43L112.51 23.43L121.05 23.43Q121.01 21.96 119.96 21.00Q118.91 20.03 116.88 20.03L116.88 20.03Q114.85 20.03 113.80 20.93Q112.75 21.82 112.51 23.43ZM142.26 16.57L140.65 20.70Q140.33 20.56 139.95 20.44Q139.56 20.31 138.97 20.31L138.97 20.31Q137.50 20.31 136.34 21.07Q135.19 21.82 134.52 23.15Q133.86 24.48 133.86 26.16L133.86 26.16L133.86 34.14L129.20 34.14L129.20 16.64L133.86 16.64L133.86 19.20Q134.52 18.49 135.31 17.79Q136.10 17.09 137.15 16.64Q138.20 16.18 139.70 16.18L139.70 16.18Q140.44 16.18 141.10 16.29Q141.77 16.39 142.26 16.57L142.26 16.57ZM149.08 34.45L149.08 34.45Q146.84 34.45 145.41 33.70Q143.97 32.95 143.31 31.73Q142.64 30.50 142.64 29.03L142.64 29.03L142.64 28.50Q142.64 27.59 143.04 26.51Q143.45 25.42 144.57 24.57Q145.69 23.71 147.86 23.50L147.86 23.50L151.99 23.08Q153.60 22.91 154.10 22.71Q154.61 22.52 154.61 21.96L154.61 21.96Q154.61 20.77 153.70 20.38Q152.79 20 151.11 20L151.11 20Q150.10 20 149.27 20.16Q148.45 20.31 147.91 20.68Q147.37 21.05 147.19 21.75L147.19 21.75L142.82 20.70Q143.20 19.41 144.08 18.51Q144.95 17.62 146.16 17.06Q147.37 16.50 148.75 16.27Q150.13 16.04 151.50 16.04L151.50 16.04Q154.65 16.11 156.36 17.04Q158.08 17.97 158.72 19.58Q159.37 21.19 159.37 23.32L159.37 23.32L159.37 34L154.82 34L154.82 31.90Q154.44 32.53 153.60 33.11Q152.76 33.69 151.58 34.07Q150.41 34.45 149.08 34.45ZM150.03 30.50L150.03 30.50Q151.46 30.50 152.46 30.04Q153.46 29.59 154.02 28.98Q154.58 28.36 154.65 27.80L154.65 27.80Q154.75 27.35 154.80 26.79Q154.86 26.23 154.82 25.70L154.82 25.70Q154.58 25.95 153.91 26.05Q153.25 26.16 152.09 26.30L152.09 26.30L149.54 26.58Q148.45 26.72 147.98 27.17Q147.51 27.63 147.51 28.33L147.51 28.33L147.51 28.54Q147.51 29.10 147.72 29.55Q147.93 30.01 148.47 30.25Q149.01 30.50 150.03 30.50ZM173.51 29.91L174.11 33.72Q173.79 33.90 173.25 34.05Q172.71 34.21 172.13 34.31Q171.55 34.42 171.06 34.45L171.06 34.45Q167.63 34.59 165.88 32.90Q164.13 31.20 164.13 27.49L164.13 27.49L164.13 20.42L161.47 20.42L161.47 16.50L164.45 16.50L165.25 10.55L168.79 10.55L168.79 16.50L173.65 16.50L173.65 20.42L168.79 20.42L168.79 26.96Q168.79 29.13 169.56 29.85Q170.33 30.57 172.04 30.32L172.04 30.32Q172.53 30.29 172.92 30.13Q173.30 29.98 173.51 29.91L173.51 29.91ZM184.75 34.45L184.75 34.45Q181.63 34.45 179.55 33.27Q177.47 32.08 176.43 29.99Q175.40 27.91 175.40 25.25L175.40 25.25Q175.40 22.63 176.43 20.54Q177.47 18.46 179.55 17.25Q181.63 16.04 184.75 16.04L184.75 16.04Q187.83 16.04 189.91 17.25Q191.99 18.46 193.01 20.54Q194.02 22.63 194.02 25.25L194.02 25.25Q194.02 27.91 193.01 29.99Q191.99 32.08 189.91 33.27Q187.83 34.45 184.75 34.45ZM184.75 30.32L184.75 30.32Q186.25 30.32 187.28 29.77Q188.32 29.20 188.82 28.09Q189.33 26.96 189.33 25.25L189.33 25.25Q189.33 23.57 188.82 22.45Q188.32 21.33 187.28 20.75Q186.25 20.17 184.75 20.17L184.75 20.17Q183.21 20.17 182.17 20.75Q181.14 21.33 180.62 22.45Q180.09 23.57 180.09 25.25L180.09 25.25Q180.09 26.96 180.62 28.09Q181.14 29.20 182.17 29.77Q183.21 30.32 184.75 30.32ZM210.44 16.57L208.83 20.70Q208.51 20.56 208.13 20.44Q207.74 20.31 207.15 20.31L207.15 20.31Q205.68 20.31 204.52 21.07Q203.37 21.82 202.70 23.15Q202.04 24.48 202.04 26.16L202.04 26.16L202.04 34.14L197.38 34.14L197.38 16.64L202.04 16.64L202.04 19.20Q202.70 18.49 203.49 17.79Q204.28 17.09 205.33 16.64Q206.38 16.18 207.88 16.18L207.88 16.18Q208.62 16.18 209.28 16.29Q209.95 16.39 210.44 16.57L210.44 16.57Z"/></g>
        
      </svg>
    